HIERARCHY
ROOT Hips
{
	OFFSET 0.000000 0.000000 0.000000
	CHANNELS 6 Xposition Yposition Zposition Zrotation Yrotation Xrotation 
	JOINT LHipJoint
	{
		OFFSET 0.000000 0.000000 0.000000
		CHANNELS 3 Zrotation Yrotation Xrotation
		JOINT LeftUpLeg
		{
			OFFSET 1.363060 -1.794630 0.839290
			CHANNELS 3 Zrotation Yrotation Xrotation
			JOINT LeftLeg
			{
				OFFSET 2.448110 -6.726130 0.000000
				CHANNELS 3 Zrotation Yrotation Xrotation
				JOINT LeftFoot
				{
					OFFSET 2.562200 -7.039590 0.000000
					CHANNELS 3 Zrotation Yrotation Xrotation
					JOINT LeftToeBase
					{
						OFFSET 0.157640 -0.433110 2.322550
						CHANNELS 3 Zrotation Yrotation Xrotation
						End Site
						{
							OFFSET 0.000000 0.000000 0.000000
						}
					}
				}
			}
		}
	}
	JOINT RHipJoint
	{
		OFFSET 0.000000 0.000000 0.000000
		CHANNELS 3 Zrotation Yrotation Xrotation
		JOINT RightUpLeg
		{
			OFFSET -1.305520 -1.794630 0.839290
			CHANNELS 3 Zrotation Yrotation Xrotation
			JOINT RightLeg
			{
				OFFSET -2.542530 -6.985550 0.000000
				CHANNELS 3 Zrotation Yrotation Xrotation
				JOINT RightFoot
				{
					OFFSET -2.568260 -7.056230 0.000000
					CHANNELS 3 Zrotation Yrotation Xrotation
					JOINT RightToeBase
					{
						OFFSET -0.164730 -0.452590 2.363150
						CHANNELS 3 Zrotation Yrotation Xrotation
						End Site
						{
							OFFSET 0.000000 0.000000 0.000000
						}
					}
				}
			}
		}
	}
	JOINT LowerBack
	{
		OFFSET 0.000000 0.000000 0.000000
		CHANNELS 3 Zrotation Yrotation Xrotation
		JOINT Spine
		{
			OFFSET 0.028270 2.035590 -0.193380
			CHANNELS 3 Zrotation Yrotation Xrotation
			JOINT Spine1
			{
				OFFSET 0.056720 2.048850 -0.042750
				CHANNELS 3 Zrotation Yrotation Xrotation
				JOINT Neck
				{
					OFFSET 0.000000 0.000000 0.000000
					CHANNELS 3 Zrotation Yrotation Xrotation
					JOINT Neck1
					{
						OFFSET -0.054170 1.746240 0.172020
						CHANNELS 3 Zrotation Yrotation Xrotation
						JOINT Head
						{
							OFFSET 0.104070 1.761360 -0.123970
							CHANNELS 3 Zrotation Yrotation Xrotation
							End Site
							{
								OFFSET 0.000000 0.000000 0.000000
							}
						}
					}
				}
				JOINT LeftShoulder
				{
					OFFSET 0.000000 0.000000 0.000000
					CHANNELS 3 Zrotation Yrotation Xrotation
					JOINT LeftArm
					{
						OFFSET 3.362410 1.200890 -0.311210
						CHANNELS 3 Zrotation Yrotation Xrotation
						JOINT LeftForeArm
						{
							OFFSET 4.983000 -0.000000 -0.000000
							CHANNELS 3 Zrotation Yrotation Xrotation
							JOINT LeftHand
							{
								OFFSET 3.483560 -0.000000 -0.000000
								CHANNELS 3 Zrotation Yrotation Xrotation
								JOINT LeftFingerBase
								{
									OFFSET 0.000000 0.000000 0.000000
									CHANNELS 3 Zrotation Yrotation Xrotation
									JOINT LeftHandIndex1
									{
										OFFSET 0.715260 -0.000000 -0.000000
										CHANNELS 3 Zrotation Yrotation Xrotation
										End Site
										{
											OFFSET 0.000000 0.000000 0.000000
										}
									}
								}
								JOINT LThumb
								{
									OFFSET 0.000000 0.000000 0.000000
									CHANNELS 3 Zrotation Yrotation Xrotation
									End Site
									{
										OFFSET 0.000000 0.000000 0.000000
									}
								}
							}
						}
					}
				}
				JOINT RightShoulder
				{
					OFFSET 0.000000 0.000000 0.000000
					CHANNELS 3 Zrotation Yrotation Xrotation
					JOINT RightArm
					{
						OFFSET -3.136600 1.374050 -0.404650
						CHANNELS 3 Zrotation Yrotation Xrotation
						JOINT RightForeArm
						{
							OFFSET -5.241900 -0.000000 -0.000000
							CHANNELS 3 Zrotation Yrotation Xrotation
							JOINT RightHand
							{
								OFFSET -3.444170 -0.000000 -0.000000
								CHANNELS 3 Zrotation Yrotation Xrotation
								JOINT RightFingerBase
								{
									OFFSET 0.000000 0.000000 0.000000
									CHANNELS 3 Zrotation Yrotation Xrotation
									JOINT RightHandIndex1
									{
										OFFSET -0.622530 -0.000000 -0.000000
										CHANNELS 3 Zrotation Yrotation Xrotation
										End Site
										{
											OFFSET 0.000000 0.000000 0.000000
										}
									}
								}
								JOINT RThumb
								{
									OFFSET 0.000000 0.000000 0.000000
									CHANNELS 3 Zrotation Yrotation Xrotation
									End Site
									{
										OFFSET 0.000000 0.000000 0.000000
									}
								}
							}
						}
					}
				}
			}
		}
	}
}
MOTION
Frames: 4
Frame Time: 0.008333
27.587066 18.138820 -23.338785 2.510804 -29.031741 20.802074 -8.808358 -0.169042 0.167493 -13.442635 -4.459125 -27.584920 -1.351464 7.142865 21.878530 0.146575 4.718315 7.091197 0.889900 -6.012900 -16.821900 -0.342543 -2.395413 -0.560897 15.307988 8.185691 -32.974257 -8.372190 -16.066192 53.803271 5.155145 -18.626561 6.131106 -0.829700 5.811300 -16.237900 -0.993429 0.509104 3.625327 -6.274238 -1.329499 -26.275273 5.898911 0.439574 -1.852249 2.658492 5.284738 -5.983205 -6.883276 8.734123 12.102978 -1.997000 4.375100 3.309400 -12.202397 -4.730192 1.314988 -59.756878 15.945730 42.040602 18.465209 -30.154510 -7.451553 -0.841734 -0.695227 -3.340245 20.402452 -9.537164 -3.411500 -7.125000 0.000000 0.000000 -4.038700 20.556400 2.369300 14.256424 6.223581 1.903299 61.929173 -25.639838 47.231393 -14.913823 24.928774 -4.741004 1.149976 2.634382 -8.755608 -11.664812 -31.563077 7.432200 7.125000 0.000000 0.000000 23.901500 -62.962800 -10.741000 
27.560154 18.131189 -23.234047 2.410547 -28.276867 20.825474 -8.804573 -0.111943 0.256209 -13.358070 -4.709372 -27.204779 -1.338967 7.130878 21.946882 0.359493 4.242958 6.396584 0.901600 -6.051400 -16.933500 -0.367627 -2.335887 -0.644133 15.521683 8.739563 -33.792667 -8.346790 -16.132425 53.994935 5.151588 -18.397919 4.699859 -0.904200 6.060000 -16.958500 -0.862027 0.407434 3.805403 -6.184510 -1.430299 -26.271202 5.825247 0.361784 -1.922736 2.340888 5.007819 -5.849881 -6.747271 8.297883 11.561946 -1.957400 4.158900 3.109300 -12.182909 -4.799487 1.346909 -59.625427 15.274689 42.051414 18.883867 -30.516122 -7.696087 -0.811090 -0.709922 -4.090851 20.281750 -9.748621 -3.465400 -7.125000 0.000000 0.000000 -4.143800 20.345500 2.450900 14.249821 6.209223 1.888949 61.866591 -25.953246 48.013386 -15.102518 25.150029 -4.807210 1.119185 2.644861 -8.762312 -11.358030 -31.575734 7.245200 7.125000 0.000000 0.000000 24.295900 -62.906600 -10.897100 
27.532839 18.126268 -23.103601 2.198466 -27.744219 20.945734 -8.824546 -0.059179 0.346255 -13.148630 -5.162215 -26.735823 -1.305892 7.135538 22.077988 0.512854 3.891023 5.518784 0.838500 -5.841300 -16.324600 -0.402680 -2.321254 -0.701092 15.658541 9.536849 -34.549086 -8.298626 -16.170434 54.044728 5.158195 -18.287063 3.543464 -0.530400 4.667000 -12.961100 -0.345125 0.488499 3.479152 -6.497080 -1.425255 -25.860996 5.668847 0.367847 -1.870616 2.547709 5.018512 -6.720344 -6.394501 8.327884 12.428990 -1.855200 4.179100 3.439200 -12.135926 -4.831037 1.382537 -59.323515 14.594873 42.425887 19.623163 -31.186712 -8.123491 -0.844821 -0.720477 -4.868446 21.330744 -9.911889 -3.725600 -7.125000 0.000000 0.000000 -3.363000 20.101400 2.005700 14.272255 6.246147 1.866663 62.074074 -26.240586 48.297517 -15.298970 25.354297 -4.882671 1.106089 2.641001 -8.563767 -11.150643 -31.678776 7.133200 7.125000 0.000000 0.000000 24.651800 -62.945800 -11.089600 
27.506630 18.120343 -23.019850 2.016422 -26.565204 21.472195 -8.699530 -0.091629 0.268048 -12.960584 -5.409157 -26.796914 -1.313685 7.084626 22.001638 0.694135 3.520370 6.035309 0.883400 -5.991400 -16.759500 -0.419841 -2.194678 -0.827584 15.918252 9.936895 -35.886250 -8.185096 -16.235918 53.992064 5.051325 -17.844369 2.250430 -0.299600 3.519400 -9.728400 -0.351798 0.200990 3.794822 -5.787083 -1.598971 -26.598442 5.548538 0.202474 -1.869239 2.090854 4.747967 -6.451007 -6.400038 7.934103 11.837551 -1.854500 3.980300 3.226500 -11.977072 -4.827587 1.448125 -59.342940 15.123578 42.610510 21.727604 -33.238114 -9.504699 -0.777247 -0.848618 -5.373219 22.138768 -9.672252 -3.710300 -7.125000 0.000000 0.000000 -2.807500 20.451000 1.651600 14.094679 6.204440 1.908471 62.104935 -26.525449 48.799854 -15.507535 25.594856 -4.969078 1.067817 2.657764 -8.493840 -10.621177 -31.848290 6.840600 7.125000 0.000000 0.000000 25.463800 -62.978400 -11.499000 
